<svg t="1589614437520" class="icon" viewBox="0 0 1024 1024" version="1.1" xmlns="http://www.w3.org/2000/svg" p-id="3210"
     width="24" height="24">
    <path d="M319.7 460.7h383.2c5.8 0 10.4-4.7 10.4-10.4V214l-101-65.4c-14.9-7.9-25.3-10.8-50.6-10.8H309.9c-0.4 1.1-0.6 2.3-0.6 3.5v309c-0.1 5.7 4.6 10.4 10.4 10.4z m79.6-220.3h194.4c13.3 0 24.1 10.8 24.1 24.1s-10.8 24.1-24.1 24.1H399.3c-13.3 0-24.1-10.8-24.1-24.1s10.8-24.1 24.1-24.1z m0 100.9h194.4c13.3 0 24.1 10.8 24.1 24.1s-10.8 24.1-24.1 24.1H399.3c-13.3 0-24.1-10.8-24.1-24.1s10.8-24.1 24.1-24.1z"
          fill="#1bd1a5" p-id="3211"></path>
    <path d="M877.5 339.5c0-12.6 0.1-19.3-9.9-25.6l-90.1-58.3v194.6c0 41.2-33.5 74.7-74.7 74.7H319.7c-41.2 0-74.7-33.5-74.7-74.7v-309c0-1.2 0.1-2.3 0.2-3.5h-58.6c-22.9 0-41.5 18.6-41.5 41.5V842c0 22.9 18.6 41.5 41.5 41.5h649.5c22.9 0 41.5-18.6 41.5-41.5l-0.1-502.5z"
          fill="#1bd1a5" p-id="3212"></path>
</svg>
