<svg t="1589613981535" class="icon" viewBox="0 0 1024 1024" version="1.1" xmlns="http://www.w3.org/2000/svg" p-id="1142"
     width="24" height="24">
    <path d="M512 896C299.936 896 128 724.064 128 512S299.936 128 512 128s384 171.936 384 384-171.936 384-384 384m0-832C264.96 64 64 264.96 64 512s200.96 448 448 448 448-200.96 448-448S759.04 64 512 64"
          fill="grey" p-id="1143"></path>
    <path d="M665.376 313.376L512 466.752l-153.376-153.376-45.248 45.248L466.752 512l-153.376 153.376 45.248 45.248L512 557.248l153.376 153.376 45.248-45.248L557.248 512l153.376-153.376z"
          fill="grey" p-id="1144"></path>
</svg>
