<?xml version="1.0" standalone="no"?><!DOCTYPE svg PUBLIC "-//W3C//DTD SVG 1.1//EN" "http://www.w3.org/Graphics/SVG/1.1/DTD/svg11.dtd"><svg t="1589332447522" class="icon" viewBox="0 0 1024 1024" version="1.1" xmlns="http://www.w3.org/2000/svg" p-id="3229" xmlns:xlink="http://www.w3.org/1999/xlink" width="200" height="200"><defs><style type="text/css"></style></defs><path d="M822.272 880.64c-14.336 0-29.696-5.12-40.96-16.384L583.68 664.576l28.672-28.672 198.656 198.656c6.144 6.144 17.408 6.144 23.552 0 6.144-6.144 6.144-17.408 0-23.552L635.904 612.352l28.672-28.672 198.656 198.656c22.528 22.528 22.528 59.392 0 80.896-11.264 11.264-25.6 17.408-40.96 17.408zM434.176 724.992C274.432 724.992 143.36 594.944 143.36 434.176 143.36 274.432 274.432 143.36 434.176 143.36c160.768 0 290.816 130.048 290.816 290.816S594.944 724.992 434.176 724.992z m0-540.672C296.96 184.32 184.32 296.96 184.32 434.176s112.64 249.856 249.856 249.856 249.856-111.616 249.856-249.856S572.416 184.32 434.176 184.32z" fill="#1296db" p-id="3230"></path><path d="M250.88 470.016c-11.264 0-20.48-9.216-20.48-19.456-2.048-60.416 20.48-116.736 62.464-159.744s99.328-64.512 159.744-62.464c11.264 0 20.48 10.24 19.456 21.504 0 11.264-10.24 20.48-21.504 19.456-49.152-2.048-95.232 16.384-129.024 51.2s-52.224 79.872-51.2 129.024c1.024 11.264-7.168 20.48-19.456 20.48z" fill="#1296db" p-id="3231"></path></svg>
